<svg width="18" height="18" viewBox="0 0 18 18" fill="none" xmlns="http://www.w3.org/2000/svg">
<path d="M3.66606 8.36473C5.20133 6.09856 6.6786 4.77598 6.6786 4.77598C6.6786 4.77598 5.05051 2.88493 3.08985 2.1695L2.96223 2.13856C1.31319 3.58045 0.271261 5.59324 0.045981 7.77214C-0.179299 9.95104 0.428783 12.1344 1.74793 13.8832C1.74793 13.7131 1.77114 11.1646 3.66606 8.36473ZM17.325 8.66251C17.3259 7.42658 17.0619 6.20481 16.551 5.07945C16.04 3.9541 15.2938 2.9513 14.3627 2.13856L14.239 2.17336C12.2783 2.88879 10.6463 4.77985 10.6463 4.77985C10.6463 4.77985 12.1236 6.10243 13.6589 8.3686C15.5538 11.1684 15.577 13.7169 15.5731 13.8871C16.7132 12.3843 17.3287 10.5488 17.325 8.66251ZM6.54325 1.89106C7.67633 2.39766 8.65473 3.22911 8.65473 3.22911C8.65473 3.22911 9.64086 2.40153 10.7739 1.89106C12.1971 1.25297 13.2838 1.45407 13.5699 1.52368C12.1258 0.531259 10.4147 0 8.66246 0C6.91021 0 5.19913 0.531259 3.755 1.52368C4.03344 1.45407 5.11625 1.24911 6.54325 1.89106ZM12.6341 10.0895C10.8436 7.88907 8.65473 6.45821 8.65473 6.45821C8.65473 6.45821 6.4775 7.88907 4.68313 10.0895C3.14399 11.9806 2.57164 13.3689 2.26227 14.2583L2.212 14.444C3.02445 15.3503 4.01881 16.0753 5.13024 16.5717C6.24168 17.068 7.44524 17.3246 8.66246 17.3246C9.87969 17.3246 11.0833 17.068 12.1947 16.5717C13.3061 16.0753 14.3005 15.3503 15.1129 14.444L15.0588 14.2583C14.7494 13.3689 14.1732 11.9806 12.6341 10.0895Z" fill="#4475F2"/>
</svg>
